<svg viewBox="0 0 598 417" fill="none">
<path d="M579.209 416.721H18.7911C13.8074 416.721 9.0278 414.741 5.50378 411.217C1.97977 407.693 0 402.913 0 397.93C203.151 374.32 402.485 374.32 598 397.93C598 402.913 596.02 407.693 592.496 411.217C588.972 414.741 584.193 416.721 579.209 416.721Z" fill="#242424"/>
<path d="M598 399.035L0 397.93L69.3061 281.314L69.6377 280.762V23.7542C69.6374 20.6347 70.2517 17.5457 71.4454 14.6635C72.639 11.7814 74.3887 9.16269 76.5946 6.95686C78.8004 4.75103 81.4191 3.00131 84.3012 1.80765C87.1833 0.613981 90.2724 -0.000259973 93.3919 8.25418e-08H501.292C504.412 -0.000259973 507.501 0.613981 510.383 1.80765C513.265 3.00131 515.883 4.75103 518.089 6.95686C520.295 9.16269 522.045 11.7814 523.239 14.6635C524.432 17.5457 525.046 20.6347 525.046 23.7542V282.53L598 399.035Z" fill="#464646"/>
<path d="M92.8503 16.5803C90.7989 16.5826 88.8322 17.3986 87.3816 18.8491C85.931 20.2997 85.1151 22.2664 85.1128 24.3178V258.654C85.1152 260.706 85.9311 262.672 87.3817 264.123C88.8322 265.573 90.7989 266.389 92.8503 266.392H505.15C507.201 266.389 509.168 265.573 510.618 264.123C512.069 262.672 512.885 260.706 512.887 258.654V24.3178C512.885 22.2665 512.069 20.2998 510.618 18.8492C509.168 17.3987 507.201 16.5827 505.15 16.5803H92.8503Z" fill="#222222"/>
<path d="M94.578 297.342C93.9441 297.343 93.3237 297.525 92.7899 297.867C92.2562 298.209 91.8312 298.697 91.5653 299.272L70.2099 345.697C69.9774 346.202 69.8757 346.758 69.9142 347.313C69.9527 347.867 70.1301 348.404 70.4301 348.872C70.73 349.34 71.143 349.725 71.6309 349.992C72.1188 350.259 72.666 350.399 73.2221 350.399H522.314C522.879 350.399 523.435 350.255 523.929 349.979C524.423 349.704 524.838 349.307 525.135 348.826C525.432 348.345 525.601 347.797 525.627 347.232C525.652 346.667 525.532 346.105 525.279 345.6L502.067 299.175C501.793 298.623 501.37 298.159 500.846 297.835C500.322 297.511 499.718 297.34 499.102 297.342H94.578Z" fill="#242424"/>
<path d="M297.5 12.7578C299.985 12.7578 302 10.7431 302 8.25781C302 5.77253 299.985 3.75781 297.5 3.75781C295.015 3.75781 293 5.77253 293 8.25781C293 10.7431 295.015 12.7578 297.5 12.7578Z" fill="#242424"/>
<path d="M253.2 359.242C252.471 359.243 251.763 359.484 251.184 359.927C250.605 360.371 250.189 360.992 249.998 361.696L244.641 381.592C244.509 382.084 244.491 382.599 244.59 383.098C244.689 383.598 244.901 384.068 245.211 384.472C245.521 384.876 245.919 385.203 246.375 385.428C246.832 385.654 247.334 385.771 247.843 385.771H349.717C350.246 385.771 350.767 385.644 351.237 385.402C351.706 385.16 352.112 384.809 352.418 384.378C352.725 383.947 352.924 383.45 352.999 382.926C353.074 382.403 353.023 381.869 352.85 381.37L345.963 361.473C345.737 360.822 345.314 360.257 344.752 359.857C344.191 359.457 343.519 359.242 342.829 359.242H253.2Z" fill="#242424"/>
<path d="M525.046 276.893V281.314H69.306L69.649 280.762V276.893H525.046Z" fill="#242424"/>
<path d="M124.893 40.9392H114.633C111.522 40.9392 109 43.461 109 46.5717C109 49.6825 111.522 52.2043 114.633 52.2043H124.893C128.004 52.2043 130.525 49.6825 130.525 46.5717C130.525 43.461 128.004 40.9392 124.893 40.9392Z" fill="#1C498D"/>
<path d="M242.239 40.9392H231.979C228.868 40.9392 226.346 43.461 226.346 46.5717C226.346 49.6825 228.868 52.2043 231.979 52.2043H242.239C245.35 52.2043 247.872 49.6825 247.872 46.5717C247.872 43.461 245.35 40.9392 242.239 40.9392Z" fill="#7394C5"/>
<path d="M275.488 40.9392H265.227C262.116 40.9392 259.595 43.461 259.595 46.5717C259.595 49.6825 262.116 52.2043 265.227 52.2043H275.488C278.598 52.2043 281.12 49.6825 281.12 46.5717C281.12 43.461 278.598 40.9392 275.488 40.9392Z" fill="#7394C5"/>
<path d="M210.321 40H146.551C143.44 40 140.919 42.5218 140.919 45.6326C140.919 48.7434 143.44 51.2651 146.551 51.2651H210.321C213.431 51.2651 215.953 48.7434 215.953 45.6326C215.953 42.5218 213.431 40 210.321 40Z" fill="#824C1A"/>
<path d="M366.783 40H303.013C299.902 40 297.381 42.5218 297.381 45.6326C297.381 48.7434 299.902 51.2651 303.013 51.2651H366.783C369.893 51.2651 372.415 48.7434 372.415 45.6326C372.415 42.5218 369.893 40 366.783 40Z" fill="#824C1A"/>
<path d="M156.185 66.3643H145.925C142.814 66.3643 140.292 68.886 140.292 71.9968C140.292 75.1076 142.814 77.6294 145.925 77.6294H156.185C159.296 77.6294 161.818 75.1076 161.818 71.9968C161.818 68.886 159.296 66.3643 156.185 66.3643Z" fill="#1C498D"/>
<path d="M273.532 66.3643H263.271C260.161 66.3643 257.639 68.886 257.639 71.9968C257.639 75.1076 260.161 77.6294 263.271 77.6294H273.532C276.643 77.6294 279.164 75.1076 279.164 71.9968C279.164 68.886 276.643 66.3643 273.532 66.3643Z" fill="#7394C5"/>
<path d="M306.78 66.3643H296.52C293.409 66.3643 290.887 68.886 290.887 71.9968C290.887 75.1076 293.409 77.6294 296.52 77.6294H306.78C309.891 77.6294 312.412 75.1076 312.412 71.9968C312.412 68.886 309.891 66.3643 306.78 66.3643Z" fill="#7394C5"/>
<path d="M241.613 65.4253H177.844C174.733 65.4253 172.211 67.9471 172.211 71.0579C172.211 74.1686 174.733 76.6904 177.844 76.6904H241.613C244.724 76.6904 247.246 74.1686 247.246 71.0579C247.246 67.9471 244.724 65.4253 241.613 65.4253Z" fill="#824C1A"/>
<path d="M398.075 65.4253H334.305C331.195 65.4253 328.673 67.9471 328.673 71.0579C328.673 74.1686 331.195 76.6904 334.305 76.6904H398.075C401.186 76.6904 403.708 74.1686 403.708 71.0579C403.708 67.9471 401.186 65.4253 398.075 65.4253Z" fill="#824C1A"/>
<path d="M187.478 91.7893H177.217C174.107 91.7893 171.585 94.3111 171.585 97.4218C171.585 100.533 174.107 103.054 177.217 103.054H187.478C190.588 103.054 193.11 100.533 193.11 97.4218C193.11 94.3111 190.588 91.7893 187.478 91.7893Z" fill="#1C498D"/>
<path d="M304.824 91.7893H294.564C291.453 91.7893 288.931 94.3111 288.931 97.4218C288.931 100.533 291.453 103.054 294.564 103.054H304.824C307.935 103.054 310.457 100.533 310.457 97.4218C310.457 94.3111 307.935 91.7893 304.824 91.7893Z" fill="#7394C5"/>
<path d="M338.072 91.7893H327.812C324.701 91.7893 322.179 94.3111 322.179 97.4218C322.179 100.533 324.701 103.054 327.812 103.054H338.072C341.183 103.054 343.705 100.533 343.705 97.4218C343.705 94.3111 341.183 91.7893 338.072 91.7893Z" fill="#7394C5"/>
<path d="M272.905 90.8501H209.136C206.025 90.8501 203.503 93.3719 203.503 96.4827C203.503 99.5935 206.025 102.115 209.136 102.115H272.905C276.016 102.115 278.538 99.5935 278.538 96.4827C278.538 93.3719 276.016 90.8501 272.905 90.8501Z" fill="#824C1A"/>
<path d="M429.367 90.8501H365.598C362.487 90.8501 359.965 93.3719 359.965 96.4827C359.965 99.5935 362.487 102.115 365.598 102.115H429.367C432.478 102.115 435 99.5935 435 96.4827C435 93.3719 432.478 90.8501 429.367 90.8501Z" fill="#824C1A"/>
<path d="M218.77 117.214H208.51C205.399 117.214 202.877 119.736 202.877 122.847C202.877 125.958 205.399 128.479 208.51 128.479H218.77C221.881 128.479 224.403 125.958 224.403 122.847C224.403 119.736 221.881 117.214 218.77 117.214Z" fill="#1C498D"/>
<path d="M336.117 117.214H325.856C322.745 117.214 320.224 119.736 320.224 122.847C320.224 125.958 322.745 128.479 325.856 128.479H336.117C339.227 128.479 341.749 125.958 341.749 122.847C341.749 119.736 339.227 117.214 336.117 117.214Z" fill="#7394C5"/>
<path d="M369.365 117.214H359.104C355.994 117.214 353.472 119.736 353.472 122.847C353.472 125.958 355.994 128.479 359.104 128.479H369.365C372.475 128.479 374.997 125.958 374.997 122.847C374.997 119.736 372.475 117.214 369.365 117.214Z" fill="#7394C5"/>
<path d="M304.198 116.275H240.428C237.318 116.275 234.796 118.797 234.796 121.908C234.796 125.019 237.318 127.54 240.428 127.54H304.198C307.309 127.54 309.83 125.019 309.83 121.908C309.83 118.797 307.309 116.275 304.198 116.275Z" fill="#824C1A"/>
<path d="M242.239 218.315H231.979C228.868 218.315 226.346 220.837 226.346 223.948C226.346 227.059 228.868 229.581 231.979 229.581H242.239C245.35 229.581 247.872 227.059 247.872 223.948C247.872 220.837 245.35 218.315 242.239 218.315Z" fill="#7394C5"/>
<path d="M275.488 218.315H265.227C262.116 218.315 259.595 220.837 259.595 223.948C259.595 227.059 262.116 229.581 265.227 229.581H275.488C278.598 229.581 281.12 227.059 281.12 223.948C281.12 220.837 278.598 218.315 275.488 218.315Z" fill="#7394C5"/>
<path d="M366.783 219.254H303.013C299.902 219.254 297.381 221.776 297.381 224.887C297.381 227.998 299.902 230.519 303.013 230.519H366.783C369.893 230.519 372.415 227.998 372.415 224.887C372.415 221.776 369.893 219.254 366.783 219.254Z" fill="#824C1A"/>
<path d="M124.893 218.315H114.633C111.522 218.315 109 220.837 109 223.948C109 227.059 111.522 229.581 114.633 229.581H124.893C128.004 229.581 130.525 227.059 130.525 223.948C130.525 220.837 128.004 218.315 124.893 218.315Z" fill="#1C498D"/>
<path d="M210.321 219.254H146.551C143.44 219.254 140.919 221.776 140.919 224.887C140.919 227.998 143.44 230.519 146.551 230.519H210.321C213.431 230.519 215.953 227.998 215.953 224.887C215.953 221.776 213.431 219.254 210.321 219.254Z" fill="#824C1A"/>
<path d="M156.185 192.89H145.925C142.814 192.89 140.292 195.412 140.292 198.523C140.292 201.634 142.814 204.155 145.925 204.155H156.185C159.296 204.155 161.818 201.634 161.818 198.523C161.818 195.412 159.296 192.89 156.185 192.89Z" fill="#1C498D"/>
<path d="M273.532 192.89H263.271C260.161 192.89 257.639 195.412 257.639 198.523C257.639 201.634 260.161 204.155 263.271 204.155H273.532C276.643 204.155 279.164 201.634 279.164 198.523C279.164 195.412 276.643 192.89 273.532 192.89Z" fill="#7394C5"/>
<path d="M306.78 192.89H296.52C293.409 192.89 290.887 195.412 290.887 198.523C290.887 201.634 293.409 204.155 296.52 204.155H306.78C309.891 204.155 312.412 201.634 312.412 198.523C312.412 195.412 309.891 192.89 306.78 192.89Z" fill="#7394C5"/>
<path d="M241.613 193.829H177.844C174.733 193.829 172.211 196.351 172.211 199.462C172.211 202.572 174.733 205.094 177.844 205.094H241.613C244.724 205.094 247.246 202.572 247.246 199.462C247.246 196.351 244.724 193.829 241.613 193.829Z" fill="#824C1A"/>
<path d="M187.478 167.465H177.217C174.107 167.465 171.585 169.987 171.585 173.098C171.585 176.209 174.107 178.73 177.217 178.73H187.478C190.588 178.73 193.11 176.209 193.11 173.098C193.11 169.987 190.588 167.465 187.478 167.465Z" fill="#1C498D"/>
<path d="M304.824 167.465H294.564C291.453 167.465 288.931 169.987 288.931 173.098C288.931 176.209 291.453 178.73 294.564 178.73H304.824C307.935 178.73 310.457 176.209 310.457 173.098C310.457 169.987 307.935 167.465 304.824 167.465Z" fill="#7394C5"/>
<path d="M338.072 167.465H327.812C324.701 167.465 322.179 169.987 322.179 173.098C322.179 176.209 324.701 178.73 327.812 178.73H338.072C341.183 178.73 343.705 176.209 343.705 173.098C343.705 169.987 341.183 167.465 338.072 167.465Z" fill="#7394C5"/>
<path d="M272.905 168.404H209.136C206.025 168.404 203.503 170.926 203.503 174.037C203.503 177.147 206.025 179.669 209.136 179.669H272.905C276.016 179.669 278.538 177.147 278.538 174.037C278.538 170.926 276.016 168.404 272.905 168.404Z" fill="#824C1A"/>
<path d="M218.77 142.04H208.51C205.399 142.04 202.877 144.562 202.877 147.673C202.877 150.784 205.399 153.305 208.51 153.305H218.77C221.881 153.305 224.403 150.784 224.403 147.673C224.403 144.562 221.881 142.04 218.77 142.04Z" fill="#1C498D"/>
<path d="M336.117 142.04H325.856C322.745 142.04 320.224 144.562 320.224 147.673C320.224 150.784 322.745 153.305 325.856 153.305H336.117C339.227 153.305 341.749 150.784 341.749 147.673C341.749 144.562 339.227 142.04 336.117 142.04Z" fill="#7394C5"/>
<path d="M369.365 142.04H359.104C355.994 142.04 353.472 144.562 353.472 147.673C353.472 150.784 355.994 153.305 359.104 153.305H369.365C372.475 153.305 374.997 150.784 374.997 147.673C374.997 144.562 372.475 142.04 369.365 142.04Z" fill="#7394C5"/>
<path d="M304.198 142.979H240.428C237.318 142.979 234.796 145.501 234.796 148.612C234.796 151.722 237.318 154.244 240.428 154.244H304.198C307.309 154.244 309.83 151.722 309.83 148.612C309.83 145.501 307.309 142.979 304.198 142.979Z" fill="#824C1A"/>
</svg>
