<svg viewBox="0 0 634 462" fill="none">
<path d="M603 130C603 151.984 596.168 173.424 583.448 191.354C570.727 209.284 552.749 222.817 532 230.08C531.34 230.31 530.67 230.54 530 230.75V123.04H391.23C391.27 122.37 391.32 121.7 391.38 121.04H530V100C529.999 98.6743 529.472 97.4028 528.535 96.4653C527.597 95.5277 526.326 95.0008 525 95.0002H396.92C397.15 94.3302 397.39 93.6602 397.65 93.0002C406.327 69.7105 422.911 50.2098 444.504 37.9049C466.098 25.5999 491.328 21.2731 515.788 25.6802C540.248 30.0874 562.381 42.9483 578.322 62.0162C594.263 81.0841 602.998 105.147 603 130V130Z" fill="#8D86C9"/>
<path d="M525 93.0002H38C36.1441 93.0023 34.3648 93.7405 33.0525 95.0528C31.7402 96.3651 31.0021 98.1444 31 100V430C31.0021 431.856 31.7402 433.635 33.0525 434.948C34.3648 436.26 36.1441 436.998 38 437H525C526.856 436.998 528.635 436.26 529.947 434.948C531.26 433.635 531.998 431.856 532 430V100C531.998 98.1444 531.26 96.3651 529.947 95.0528C528.635 93.7405 526.856 93.0023 525 93.0002V93.0002ZM530 430C529.999 431.326 529.472 432.598 528.535 433.535C527.597 434.473 526.326 435 525 435H38C36.6741 435 35.4026 434.473 34.465 433.535C33.5275 432.598 33.0005 431.326 33 430V100C33.0005 98.6743 33.5275 97.4029 34.465 96.4653C35.4026 95.5277 36.6741 95.0008 38 95.0002H525C526.326 95.0008 527.597 95.5277 528.535 96.4653C529.472 97.4029 529.999 98.6743 530 100V430Z" fill="#3F3D56"/>
<path d="M531 121.04H32V123.04H531V121.04Z" fill="#3F3D56"/>
<path d="M49 114C52.3137 114 55 111.314 55 108C55 104.687 52.3137 102 49 102C45.6863 102 43 104.687 43 108C43 111.314 45.6863 114 49 114Z" fill="#3F3D56"/>
<path d="M66.25 114C69.5637 114 72.25 111.314 72.25 108C72.25 104.687 69.5637 102 66.25 102C62.9363 102 60.25 104.687 60.25 108C60.25 111.314 62.9363 114 66.25 114Z" fill="#3F3D56"/>
<path d="M83.5 114C86.8137 114 89.5 111.314 89.5 108C89.5 104.687 86.8137 102 83.5 102C80.1863 102 77.5 104.687 77.5 108C77.5 111.314 80.1863 114 83.5 114Z" fill="#3F3D56"/>
<path d="M401.878 398H162.878V155H401.878V398Z" fill="white"/>
<path d="M197.378 212C208.7 212 217.878 203.046 217.878 192C217.878 180.955 208.7 172 197.378 172C186.056 172 176.878 180.955 176.878 192C176.878 203.046 186.056 212 197.378 212Z" fill="#E6E6E6"/>
<path d="M303.878 178H233.878V184H303.878V178Z" fill="#E6E6E6"/>
<path d="M386.878 192H233.878V198H386.878V192Z" fill="#E6E6E6"/>
<path d="M386.878 206H233.878V212H386.878V206Z" fill="#E6E6E6"/>
<path d="M197.378 379C208.7 379 217.878 369.822 217.878 358.5C217.878 347.178 208.7 338 197.378 338C186.056 338 176.878 347.178 176.878 358.5C176.878 369.822 186.056 379 197.378 379Z" fill="#E6E6E6"/>
<path d="M303.878 344H233.878V350H303.878V344Z" fill="#E6E6E6"/>
<path d="M386.878 358H233.878V364H386.878V358Z" fill="#E6E6E6"/>
<path d="M386.878 373H233.878V379H386.878V373Z" fill="#E6E6E6"/>
<g filter="url(#filter0_d_624_549)">
<path d="M426.878 314H136.878V237H426.878V314Z" fill="white"/>
</g>
<path d="M191.878 275C191.878 285.494 183.372 294 172.878 294C162.385 294 153.878 285.494 153.878 275C153.878 264.507 162.385 256 172.878 256C183.372 256 191.878 264.507 191.878 275Z" stroke="#8D86C9" stroke-width="2"/>
<path d="M297.878 258H214.878V264H297.878V258Z" fill="#3F3D56"/>
<path d="M397.878 272H214.878V278H397.878V272Z" fill="#3F3D56"/>
<path d="M397.878 287H214.878V292H397.878V287Z" fill="#3F3D56"/>
<line x1="162.878" y1="275.429" x2="182.878" y2="275.429" stroke="#D34E8C" stroke-width="3"/>
<line x1="172.807" y1="285.5" x2="172.807" y2="265.5" stroke="#D34E8C" stroke-width="3"/>
</svg>
