<svg viewBox="0 0 589 389" fill="none">
<path d="M0.408747 278.587H469.845V7.65658C469.843 5.62661 469.033 3.68045 467.593 2.24506C466.153 0.809675 464.201 0.00228809 462.164 0H8.08943C6.05313 0.00228809 4.10089 0.809675 2.66098 2.24506C1.22108 3.68045 0.411098 5.62661 0.408747 7.65658V278.587Z" fill="#3F3F3F"/>
<path d="M455.341 10.5911H14.913V259.853H455.341V10.5911Z" fill="white"/>
<path d="M6.31528e-10 271.255V304.688C-1.51841e-05 306.074 0.273801 307.447 0.805843 308.727C1.33789 310.008 2.11774 311.171 3.10084 312.151C4.08394 313.131 5.25103 313.909 6.53552 314.439C7.82001 314.97 9.19673 315.243 10.5871 315.243H183.852V381.224H181.551C181.37 381.224 181.191 381.259 181.024 381.328C180.857 381.397 180.706 381.498 180.578 381.625C180.45 381.753 180.349 381.904 180.28 382.07C180.211 382.236 180.175 382.415 180.175 382.595V387.184C180.175 387.364 180.211 387.542 180.28 387.709C180.349 387.875 180.45 388.026 180.578 388.154C180.706 388.281 180.857 388.382 181.024 388.451C181.191 388.52 181.37 388.555 181.551 388.555H289.111C289.292 388.555 289.471 388.52 289.638 388.451C289.805 388.382 289.956 388.281 290.084 388.154C290.212 388.026 290.313 387.875 290.382 387.709C290.451 387.542 290.487 387.364 290.487 387.184V382.595C290.487 382.415 290.451 382.236 290.382 382.07C290.313 381.904 290.212 381.753 290.084 381.625C289.956 381.498 289.804 381.397 289.638 381.328C289.471 381.259 289.292 381.224 289.111 381.224H286.81V315.243H460.075C461.465 315.243 462.842 314.97 464.126 314.439C465.411 313.909 466.578 313.131 467.561 312.151C468.544 311.171 469.324 310.008 469.856 308.727C470.388 307.447 470.662 306.074 470.662 304.688V271.255L6.31528e-10 271.255Z" fill="#0F1A20"/>
<path d="M201.076 114.645H93.6695C92.921 114.645 92.2035 114.547 91.6742 114.374C91.145 114.201 90.8472 113.967 90.8464 113.722V99.4772C90.8472 99.2326 91.145 98.998 91.6742 98.825C92.2035 98.652 92.921 98.5547 93.6695 98.5545H201.076C201.825 98.5547 202.543 98.652 203.072 98.825C203.601 98.998 203.899 99.2326 203.9 99.4772V113.722C203.899 113.967 203.601 114.201 203.072 114.374C202.543 114.547 201.825 114.645 201.076 114.645Z" fill="#D34E8C"/>
<path d="M155.803 176.996H92.51C92.0689 176.996 91.6461 176.923 91.3342 176.793C91.0223 176.663 90.8469 176.487 90.8464 176.304V165.62C90.8469 165.436 91.0223 165.261 91.3342 165.131C91.6461 165.001 92.0689 164.928 92.51 164.928H155.803C156.244 164.928 156.667 165.001 156.979 165.131C157.291 165.261 157.467 165.436 157.467 165.62V176.304C157.467 176.487 157.291 176.663 156.979 176.793C156.667 176.923 156.244 176.996 155.803 176.996Z" fill="#8D86C9"/>
<path d="M181.122 134.571H94.2317C93.3338 134.571 92.4728 134.215 91.8379 133.582C91.2031 132.949 90.8464 132.091 90.8464 131.196C90.8464 130.301 91.2031 129.442 91.8379 128.81C92.4728 128.177 93.3338 127.821 94.2317 127.821H181.122C185.487 127.76 185.531 134.632 181.122 134.571Z" fill="#E4E4E4"/>
<path d="M181.122 150.04H94.2317C93.3338 150.04 92.4728 149.685 91.8379 149.052C91.2031 148.419 90.8464 147.561 90.8464 146.666C90.8464 145.771 91.2031 144.912 91.8379 144.279C92.4728 143.646 93.3338 143.291 94.2317 143.291H181.122C185.487 143.23 185.531 150.102 181.122 150.04Z" fill="#E4E4E4"/>
<path d="M381.555 138.781C381.555 173.216 353.535 201.132 318.972 201.132C284.408 201.132 256.389 173.216 256.389 138.781C256.389 104.345 284.408 76.43 318.972 76.43C353.535 76.43 381.555 104.345 381.555 138.781Z" fill="#F2F2F2"/>
<path d="M586.268 71.0992L586.575 128.163H588.766V149.346H586.693L586.758 162.039H588.766L589 183.147L586.877 183.185L587.888 369.395C587.91 374.271 585.991 378.956 582.551 382.423C579.112 385.889 574.433 387.854 569.542 387.885L363.206 389C358.315 389.022 353.615 387.109 350.137 383.68C346.66 380.251 344.689 375.587 344.658 370.711L343.038 72.4145C343.016 67.5387 344.935 62.8534 348.375 59.3869C351.815 55.9204 356.493 53.9559 361.384 53.9245L567.72 52.8099C572.611 52.7898 577.31 54.7039 580.786 58.1324C584.263 61.5609 586.235 66.224 586.268 71.0992Z" fill="#0F1A20"/>
<path d="M569.839 376.155L362.777 377.274C361.269 377.281 359.821 376.691 358.749 375.634C357.677 374.577 357.07 373.139 357.06 371.636L355.427 71.3573C355.42 69.8544 356.012 68.4104 357.072 67.3419C358.132 66.2735 359.574 65.6679 361.082 65.658L568.144 64.5386C569.652 64.5322 571.1 65.1222 572.172 66.1791C573.244 67.236 573.851 68.6736 573.861 70.1765L575.495 370.456C575.501 371.958 574.909 373.403 573.849 374.471C572.789 375.539 571.347 376.145 569.839 376.155Z" fill="white"/>
<path d="M463.796 60.5641C464.662 60.5641 465.365 59.8637 465.365 58.9997C465.365 58.1358 464.662 57.4354 463.796 57.4354C462.929 57.4354 462.226 58.1358 462.226 58.9997C462.226 59.8637 462.929 60.5641 463.796 60.5641Z" fill="#2C2C2C"/>
<path d="M283.033 190.496C283.033 179.388 292.071 170.383 303.221 170.383H369.872C381.022 170.383 390.061 179.388 390.061 190.496V368.51C390.061 379.618 381.022 388.623 369.872 388.623H303.221C292.071 388.623 283.033 379.618 283.033 368.51V190.496Z" fill="#0F1A20"/>
<path d="M287.087 190.515C287.087 181.628 294.318 174.424 303.238 174.424H369.857C378.776 174.424 386.007 181.628 386.007 190.515V368.491C386.007 377.377 378.776 384.581 369.857 384.581H303.238C294.318 384.581 287.087 377.377 287.087 368.491V190.515Z" fill="white"/>
<path d="M307.356 174.424H364.924C364.924 179.781 360.565 184.124 355.189 184.124H317.092C311.715 184.124 307.356 179.781 307.356 174.424Z" fill="#0F1A20"/>
<path d="M315.664 179.658C316.359 179.658 316.923 179.096 316.923 178.403C316.923 177.709 316.359 177.147 315.664 177.147C314.969 177.147 314.405 177.709 314.405 178.403C314.405 179.096 314.969 179.658 315.664 179.658Z" fill="#262626"/>
<path d="M361.366 258.453C361.366 272.338 350.068 283.594 336.131 283.594C322.194 283.594 310.896 272.338 310.896 258.453C310.896 244.567 322.194 233.311 336.131 233.311C350.068 233.311 361.366 244.567 361.366 258.453Z" fill="#F2F2F2"/>
<path d="M56.526 36.2022C56.526 40.6455 52.9106 44.2475 48.4508 44.2475C43.991 44.2475 40.3755 40.6455 40.3755 36.2022C40.3755 31.7589 43.991 28.1569 48.4508 28.1569C52.9106 28.1569 56.526 31.7589 56.526 36.2022Z" fill="#8D86C9"/>
<path d="M419.912 31.0301C419.912 30.5541 420.299 30.1683 420.777 30.1683H431.159C431.637 30.1683 432.024 30.5541 432.024 31.0301C432.024 31.5061 431.637 31.892 431.159 31.892H420.777C420.299 31.892 419.912 31.5061 419.912 31.0301Z" fill="#0F1A20"/>
<path d="M419.912 36.1999C419.912 35.7239 420.299 35.338 420.777 35.338H431.159C431.637 35.338 432.024 35.7239 432.024 36.1999C432.024 36.6759 431.637 37.0617 431.159 37.0617H420.777C420.299 37.0617 419.912 36.6759 419.912 36.1999Z" fill="#0F1A20"/>
<path d="M419.912 41.3734C419.912 40.8975 420.299 40.5116 420.777 40.5116H431.159C431.637 40.5116 432.024 40.8975 432.024 41.3734C432.024 41.8494 431.637 42.2353 431.159 42.2353H420.777C420.299 42.2353 419.912 41.8494 419.912 41.3734Z" fill="#0F1A20"/>
<path d="M312.915 199.119C312.915 202.451 310.203 205.153 306.858 205.153C303.513 205.153 300.802 202.451 300.802 199.119C300.802 195.786 303.513 193.085 306.858 193.085C310.203 193.085 312.915 195.786 312.915 199.119Z" fill="#8D86C9"/>
<path d="M365.404 195.671C365.404 195.353 365.662 195.096 365.98 195.096H372.902C373.221 195.096 373.479 195.353 373.479 195.671C373.479 195.988 373.221 196.245 372.902 196.245H365.98C365.662 196.245 365.404 195.988 365.404 195.671Z" fill="#0F1A20"/>
<path d="M365.404 199.118C365.404 198.801 365.662 198.544 365.98 198.544H372.902C373.221 198.544 373.479 198.801 373.479 199.118C373.479 199.435 373.221 199.693 372.902 199.693H365.98C365.662 199.693 365.404 199.435 365.404 199.118Z" fill="#0F1A20"/>
<path d="M365.404 202.566C365.404 202.248 365.662 201.991 365.98 201.991H372.902C373.221 201.991 373.479 202.248 373.479 202.566C373.479 202.883 373.221 203.14 372.902 203.14H365.98C365.662 203.14 365.404 202.883 365.404 202.566Z" fill="#0F1A20"/>
<path d="M387.274 89.3331C387.274 93.1284 384.186 96.2051 380.377 96.2051C376.567 96.2051 373.479 93.1284 373.479 89.3331C373.479 85.5378 376.567 82.4612 380.377 82.4612C384.186 82.4612 387.274 85.5378 387.274 89.3331Z" fill="#8D86C9"/>
<path d="M545.078 84.569C545.078 84.2076 545.372 83.9146 545.734 83.9146H553.618C553.98 83.9146 554.274 84.2076 554.274 84.569C554.274 84.9304 553.98 85.2234 553.618 85.2234H545.734C545.372 85.2234 545.078 84.9304 545.078 84.569Z" fill="#0F1A20"/>
<path d="M545.078 88.4971C545.078 88.1357 545.372 87.8428 545.734 87.8428H553.618C553.98 87.8428 554.274 88.1357 554.274 88.4971C554.274 88.8585 553.98 89.1515 553.618 89.1515H545.734C545.372 89.1515 545.078 88.8585 545.078 88.4971Z" fill="#0F1A20"/>
<path d="M545.078 92.4208C545.078 92.0594 545.372 91.7664 545.734 91.7664H553.618C553.98 91.7664 554.274 92.0594 554.274 92.4208C554.274 92.7822 553.98 93.0752 553.618 93.0752H545.734C545.372 93.0752 545.078 92.7822 545.078 92.4208Z" fill="#0F1A20"/>
<path d="M371.664 312.04H302.617C302.136 312.04 301.674 311.977 301.334 311.866C300.994 311.755 300.802 311.604 300.802 311.447V302.289C300.802 302.132 300.994 301.981 301.334 301.87C301.674 301.759 302.136 301.696 302.617 301.696H371.664C372.145 301.696 372.607 301.759 372.947 301.87C373.287 301.981 373.478 302.132 373.479 302.289V311.447C373.478 311.604 373.287 311.755 372.947 311.866C372.607 311.977 372.145 312.04 371.664 312.04Z" fill="#D34E8C"/>
<path d="M356.692 352.122H316.003C315.719 352.122 315.448 352.075 315.247 351.992C315.047 351.909 314.934 351.795 314.934 351.677V344.809C314.934 344.691 315.047 344.578 315.247 344.495C315.448 344.411 315.719 344.365 316.003 344.364H356.692C356.975 344.365 357.247 344.411 357.447 344.495C357.648 344.578 357.761 344.691 357.761 344.809V351.677C357.761 351.795 357.648 351.909 357.447 351.992C357.247 352.075 356.975 352.122 356.692 352.122Z" fill="#8D86C9"/>
<path d="M364.892 324.848H309.035C308.457 324.848 307.904 324.619 307.496 324.213C307.088 323.806 306.858 323.254 306.858 322.678C306.858 322.103 307.088 321.551 307.496 321.144C307.904 320.738 308.457 320.509 309.035 320.509H364.892C367.699 320.47 367.727 324.887 364.892 324.848Z" fill="#E4E4E4"/>
<path d="M364.892 334.794H309.035C308.457 334.794 307.904 334.565 307.496 334.159C307.088 333.752 306.858 333.2 306.858 332.624C306.858 332.049 307.088 331.497 307.496 331.09C307.904 330.684 308.457 330.455 309.035 330.455H364.892C367.699 330.416 367.727 334.833 364.892 334.794Z" fill="#E4E4E4"/>
<path d="M512.777 169.955C512.777 194.948 492.44 215.209 467.354 215.209C442.267 215.209 421.93 194.948 421.93 169.955C421.93 144.961 442.267 124.7 467.354 124.7C492.44 124.7 512.777 144.961 512.777 169.955Z" fill="#F2F2F2"/>
<path d="M531.707 259.974H407.038C406.169 259.974 405.336 259.861 404.722 259.66C404.108 259.459 403.762 259.187 403.761 258.903V242.369C403.762 242.085 404.108 241.812 404.722 241.612C405.336 241.411 406.169 241.298 407.038 241.297H531.707C532.575 241.298 533.408 241.411 534.023 241.612C534.637 241.812 534.983 242.085 534.984 242.369V258.903C534.983 259.187 534.637 259.459 534.023 259.66C533.408 259.861 532.575 259.974 531.707 259.974Z" fill="#D34E8C"/>
<path d="M504.673 332.347H431.208C430.696 332.347 430.205 332.262 429.843 332.112C429.481 331.961 429.277 331.757 429.277 331.544V319.143C429.277 318.93 429.481 318.726 429.843 318.576C430.205 318.425 430.696 318.34 431.208 318.34H504.673C505.185 318.34 505.676 318.425 506.038 318.576C506.4 318.726 506.604 318.93 506.604 319.143V331.544C506.604 331.757 506.4 331.961 506.038 332.112C505.676 332.262 505.185 332.347 504.673 332.347Z" fill="#8D86C9"/>
<path d="M519.48 283.1H418.626C417.584 283.1 416.584 282.687 415.847 281.953C415.11 281.218 414.696 280.222 414.696 279.183C414.696 278.144 415.11 277.148 415.847 276.413C416.584 275.678 417.584 275.266 418.626 275.266H519.48C524.547 275.195 524.598 283.171 519.48 283.1Z" fill="#E4E4E4"/>
<path d="M519.48 301.059H418.626C417.584 301.059 416.584 300.646 415.847 299.912C415.11 299.177 414.696 298.181 414.696 297.142C414.696 296.103 415.11 295.107 415.847 294.372C416.584 293.637 417.584 293.225 418.626 293.225H519.48C524.547 293.154 524.598 301.13 519.48 301.059Z" fill="#E4E4E4"/>
<path d="M389.922 224.569H391.191V243.536H389.922V224.569Z" fill="#0F1A20"/>
</svg>
