<svg viewBox="0 0 650 581" fill="none">
<path d="M608.211 316.412L143.012 515.432C139.835 516.787 136.251 516.826 133.044 515.542C129.838 514.257 127.273 511.753 125.911 508.579L3.19096 221.728C2.19824 219.4 2.16932 216.774 3.11055 214.425C4.05178 212.076 5.8863 210.196 8.21163 209.199L479.664 7.50325C482.032 6.49342 484.704 6.46408 487.093 7.42167C489.483 8.37926 491.395 10.2456 492.41 12.6112L615.065 299.31C616.419 302.487 616.459 306.072 615.174 309.278C613.889 312.484 611.385 315.05 608.211 316.412Z" fill="#F2F2F2"/>
<path d="M586.7 307.724L153.147 493.206C146.792 495.925 139.55 493.295 137.004 487.343L30.1383 237.55C28.2501 233.136 30.5452 227.906 35.2547 225.892L474.636 37.9168C479.424 35.8686 484.88 37.8524 486.799 42.3388L593.609 292C596.155 297.951 593.056 305.005 586.7 307.724Z" fill="white"/>
<path d="M492.817 14.0234L3.6614 223.292L1.05256 217.194C-0.305921 214.006 -0.344324 210.409 0.945771 207.193C2.23587 203.977 4.74911 201.403 7.93414 200.037L473.047 1.05444C476.234 -0.30604 479.831 -0.346683 483.048 0.941423C486.265 2.22953 488.84 4.74119 490.208 7.92538L492.817 14.0234Z" fill="#D34E8C"/>
<path d="M21.6417 208.29C23.5096 208.29 25.0238 206.776 25.0238 204.908C25.0238 203.04 23.5096 201.526 21.6417 201.526C19.7739 201.526 18.2597 203.04 18.2597 204.908C18.2597 206.776 19.7739 208.29 21.6417 208.29Z" fill="white"/>
<path d="M33.4444 203.241C35.3122 203.241 36.8264 201.726 36.8264 199.859C36.8264 197.991 35.3122 196.477 33.4444 196.477C31.5765 196.477 30.0623 197.991 30.0623 199.859C30.0623 201.726 31.5765 203.241 33.4444 203.241Z" fill="white"/>
<path d="M45.247 198.191C47.1148 198.191 48.629 196.677 48.629 194.809C48.629 192.941 47.1148 191.427 45.247 191.427C43.3791 191.427 41.8649 192.941 41.8649 194.809C41.8649 196.677 43.3791 198.191 45.247 198.191Z" fill="white"/>
<path d="M239.939 287.225L182.12 311.961C178.943 313.316 175.358 313.355 172.152 312.071C168.946 310.786 166.38 308.282 165.018 305.108L133.101 230.504C131.746 227.327 131.707 223.742 132.992 220.536C134.277 217.33 136.781 214.764 139.955 213.402L197.773 188.666C200.951 187.311 204.535 187.272 207.742 188.556C210.948 189.841 213.513 192.345 214.875 195.519L246.792 270.123C248.147 273.3 248.187 276.885 246.902 280.091C245.617 283.298 243.113 285.863 239.939 287.225Z" fill="#F2F2F2"/>
<path d="M337.773 245.37L279.954 270.106C276.777 271.461 273.192 271.501 269.986 270.216C266.78 268.931 264.214 266.427 262.852 263.253L230.935 188.649C229.58 185.472 229.541 181.887 230.825 178.681C232.11 175.475 234.614 172.909 237.788 171.547L295.607 146.811C298.784 145.456 302.369 145.417 305.575 146.702C308.781 147.986 311.347 150.49 312.709 153.664L344.626 228.268C345.981 231.446 346.02 235.03 344.735 238.236C343.451 241.443 340.947 244.008 337.773 245.37V245.37Z" fill="#F2F2F2"/>
<path d="M435.606 203.515L377.787 228.251C374.61 229.606 371.025 229.646 367.819 228.361C364.613 227.076 362.048 224.572 360.685 221.398L328.768 146.794C327.414 143.617 327.374 140.032 328.659 136.826C329.944 133.62 332.448 131.054 335.622 129.692L393.441 104.956C396.618 103.601 400.203 103.562 403.409 104.847C406.615 106.131 409.181 108.635 410.543 111.809L442.46 186.414C443.815 189.591 443.854 193.175 442.569 196.382C441.284 199.588 438.78 202.153 435.606 203.515Z" fill="#F2F2F2"/>
<path d="M289.318 402.647L231.499 427.383C228.322 428.738 224.737 428.777 221.531 427.492C218.325 426.207 215.76 423.703 214.397 420.529L182.48 345.925C181.126 342.748 181.086 339.163 182.371 335.957C183.656 332.751 186.16 330.186 189.334 328.823L247.153 304.087C250.33 302.733 253.915 302.693 257.121 303.978C260.327 305.263 262.892 307.767 264.255 310.941L296.172 385.545C297.526 388.722 297.566 392.307 296.281 395.513C294.996 398.719 292.492 401.285 289.318 402.647Z" fill="#F2F2F2"/>
<path d="M387.152 360.792L329.333 385.528C326.156 386.883 322.571 386.922 319.365 385.637C316.159 384.353 313.593 381.848 312.231 378.674L280.314 304.07C278.959 300.893 278.92 297.308 280.205 294.102C281.49 290.896 283.994 288.331 287.168 286.968L344.986 262.232C348.164 260.878 351.748 260.838 354.955 262.123C358.161 263.408 360.726 265.912 362.088 269.086L394.005 343.69C395.36 346.867 395.4 350.452 394.115 353.658C392.83 356.864 390.326 359.43 387.152 360.792V360.792Z" fill="#F2F2F2"/>
<path d="M484.986 318.937L427.167 343.673C423.989 345.028 420.405 345.067 417.198 343.782C413.992 342.498 411.427 339.994 410.065 336.82L378.148 262.216C376.793 259.038 376.753 255.454 378.038 252.247C379.323 249.041 381.827 246.476 385.001 245.114L442.82 220.378C445.997 219.023 449.582 218.983 452.788 220.268C455.994 221.553 458.56 224.057 459.922 227.231L491.839 301.835C493.194 305.012 493.233 308.597 491.948 311.803C490.664 315.009 488.16 317.575 484.986 318.937Z" fill="#F2F2F2"/>
<path d="M636.972 580.756H130.989C127.535 580.752 124.224 579.378 121.782 576.936C119.339 574.494 117.966 571.182 117.962 567.728V255.729C117.964 253.199 118.971 250.773 120.76 248.983C122.549 247.194 124.975 246.188 127.506 246.185H640.291C642.865 246.188 645.333 247.211 647.153 249.032C648.973 250.852 649.997 253.32 650 255.894V567.728C649.996 571.182 648.622 574.494 646.18 576.936C643.738 579.378 640.426 580.752 636.972 580.756V580.756Z" fill="#E6E6E6"/>
<path d="M620.613 564.308H149.05C142.137 564.308 136.514 559.041 136.514 552.568V280.875C136.514 276.075 140.681 272.169 145.803 272.169H623.705C628.913 272.169 633.149 276.139 633.149 281.019V552.568C633.149 559.041 627.525 564.308 620.613 564.308Z" fill="white"/>
<path d="M649.819 257.353H117.779V250.72C117.784 247.254 119.163 243.932 121.614 241.483C124.066 239.033 127.389 237.656 130.854 237.653H636.743C640.209 237.656 643.532 239.033 645.983 241.483C648.434 243.932 649.814 247.254 649.819 250.72V257.353Z" fill="#D34E8C"/>
<path d="M141.541 250.904C143.409 250.904 144.923 249.39 144.923 247.522C144.923 245.655 143.409 244.14 141.541 244.14C139.673 244.14 138.159 245.655 138.159 247.522C138.159 249.39 139.673 250.904 141.541 250.904Z" fill="white"/>
<path d="M154.378 250.904C156.246 250.904 157.76 249.39 157.76 247.522C157.76 245.655 156.246 244.14 154.378 244.14C152.511 244.14 150.996 245.655 150.996 247.522C150.996 249.39 152.511 250.904 154.378 250.904Z" fill="white"/>
<path d="M167.216 250.904C169.084 250.904 170.598 249.39 170.598 247.522C170.598 245.655 169.084 244.14 167.216 244.14C165.348 244.14 163.834 245.655 163.834 247.522C163.834 249.39 165.348 250.904 167.216 250.904Z" fill="white"/>
<line x1="199" y1="396.23" x2="334.015" y2="396.23" stroke="#E6E6E6" stroke-width="5"/>
<line x1="199" y1="414.39" x2="345.069" y2="414.39" stroke="#E6E6E6" stroke-width="5"/>
<line x1="199" y1="431.76" x2="329.278" y2="431.76" stroke="#E6E6E6" stroke-width="5"/>
<line x1="199" y1="449.13" x2="356.913" y2="449.13" stroke="#E6E6E6" stroke-width="5"/>
<line x1="199" y1="469.396" x2="277.956" y2="469.396" stroke="#8D86C9" stroke-width="15"/>
<line x1="199" y1="374.78" x2="356.913" y2="374.78" stroke="#D34E8C" stroke-width="10"/>
<line x1="589.804" y1="302.482" x2="613.491" y2="302.482" stroke="black" stroke-width="3"/>
<line x1="589.804" y1="310.378" x2="613.491" y2="310.378" stroke="black" stroke-width="3"/>
<line x1="589.804" y1="293.797" x2="613.491" y2="293.797" stroke="black" stroke-width="3"/>
<circle cx="165.019" cy="302.403" r="11.8435" fill="#8D86C9"/>
<circle cx="165.019" cy="302.403" r="11.8435" fill="#8D86C9"/>
<rect x="428.134" y="359" width="125" height="125" rx="14" stroke="black" stroke-width="2"/>
<rect x="441.134" y="371" width="127" height="127" rx="15" fill="#8D86C9"/>
</svg>
