<svg viewBox="0 0 55 55" fill="none">
<rect width="55" height="55" rx="10" fill="#F7F4F3"/>
<path d="M8.15234 35.001C8.15234 32.2445 8.55827 29.6484 9.37012 27.2129C10.2008 24.7585 11.3053 22.5023 12.6836 20.4443C14.0807 18.3675 15.6855 16.5078 17.498 14.8652C19.3294 13.2227 21.2363 11.835 23.2188 10.7021C25.2201 9.55046 27.2402 8.67253 29.2793 8.06836C31.3372 7.44531 33.2913 7.13379 35.1416 7.13379C36.7842 7.13379 38.3418 7.32259 39.8145 7.7002C41.306 8.0778 42.6276 8.65365 43.7793 9.42773C44.9499 10.2018 45.9222 11.1836 46.6963 12.373C47.4704 13.5436 47.9896 14.9219 48.2539 16.5078C48.2728 16.6022 48.2822 16.6872 48.2822 16.7627C48.2822 16.8382 48.2822 16.9232 48.2822 17.0176C48.2822 17.7539 48.0651 18.3203 47.6309 18.7168C47.2155 19.0944 46.7624 19.2832 46.2715 19.2832C45.724 19.2832 45.2142 18.9906 44.7422 18.4053C44.2702 17.82 43.8171 16.9893 43.3828 15.9131C42.6842 14.5915 41.6742 13.6286 40.3525 13.0244C39.0309 12.4202 37.5394 12.1182 35.8779 12.1182C34.4242 12.1182 32.8949 12.3825 31.29 12.9111C29.7041 13.4398 28.1276 14.1855 26.5605 15.1484C25.0124 16.1113 23.5303 17.2725 22.1143 18.6318C20.6982 19.9723 19.4521 21.4639 18.376 23.1064C17.2998 24.7301 16.4408 26.486 15.7988 28.374C15.1758 30.262 14.8643 32.2161 14.8643 34.2363C14.8643 35.9167 15.0719 37.3327 15.4873 38.4844C15.9027 39.6361 16.4502 40.5706 17.1299 41.2881C17.8096 42.0055 18.5742 42.5247 19.4238 42.8457C20.2734 43.1667 21.1325 43.3271 22.001 43.3271C23.9456 43.3271 25.7959 42.7985 27.5518 41.7412C29.3265 40.6839 30.8841 39.1735 32.2246 37.21C33.5651 35.2275 34.6318 32.8203 35.4248 29.9883C36.2178 27.1374 36.6143 23.9277 36.6143 20.3594C36.6143 20.0007 36.6048 19.6514 36.5859 19.3115C36.5859 18.9528 36.5859 18.5846 36.5859 18.207C36.5859 17.263 36.7559 16.5739 37.0957 16.1396C37.4355 15.6865 37.8226 15.46 38.2568 15.46C38.9932 15.46 39.5879 15.6676 40.041 16.083C40.513 16.4795 40.8812 17.0176 41.1455 17.6973C41.4098 18.3581 41.5892 19.1227 41.6836 19.9912C41.7969 20.8408 41.8535 21.7188 41.8535 22.625C41.8535 25.1927 41.5798 27.6188 41.0322 29.9033C40.4847 32.1689 39.7201 34.2741 38.7383 36.2188C37.7754 38.1445 36.6237 39.8815 35.2832 41.4297C33.9616 42.959 32.5267 44.2617 30.9785 45.3379C29.4303 46.3952 27.7972 47.2165 26.0791 47.8018C24.3799 48.3682 22.6618 48.6514 20.9248 48.6514C19.32 48.6514 17.7529 48.4248 16.2236 47.9717C14.6943 47.4997 13.3255 46.735 12.1172 45.6777C10.9277 44.6016 9.96484 43.195 9.22852 41.458C8.51107 39.7021 8.15234 37.5498 8.15234 35.001Z" fill="#D34E8C"/>
</svg>
