<svg viewBox="0 0 55 55" fill="none">
<rect width="55" height="55" rx="10" fill="#D34E8C"/>
<path d="M7.15234 35.001C7.15234 32.2445 7.55827 29.6484 8.37012 27.2129C9.20085 24.7585 10.3053 22.5023 11.6836 20.4443C13.0807 18.3675 14.6855 16.5078 16.498 14.8652C18.3294 13.2227 20.2363 11.835 22.2188 10.7021C24.2201 9.55046 26.2402 8.67253 28.2793 8.06836C30.3372 7.44531 32.2913 7.13379 34.1416 7.13379C35.7842 7.13379 37.3418 7.32259 38.8145 7.7002C40.306 8.0778 41.6276 8.65365 42.7793 9.42773C43.9499 10.2018 44.9222 11.1836 45.6963 12.373C46.4704 13.5436 46.9896 14.9219 47.2539 16.5078C47.2728 16.6022 47.2822 16.6872 47.2822 16.7627C47.2822 16.8382 47.2822 16.9232 47.2822 17.0176C47.2822 17.7539 47.0651 18.3203 46.6309 18.7168C46.2155 19.0944 45.7624 19.2832 45.2715 19.2832C44.724 19.2832 44.2142 18.9906 43.7422 18.4053C43.2702 17.82 42.8171 16.9893 42.3828 15.9131C41.6842 14.5915 40.6742 13.6286 39.3525 13.0244C38.0309 12.4202 36.5394 12.1182 34.8779 12.1182C33.4242 12.1182 31.8949 12.3825 30.29 12.9111C28.7041 13.4398 27.1276 14.1855 25.5605 15.1484C24.0124 16.1113 22.5303 17.2725 21.1143 18.6318C19.6982 19.9723 18.4521 21.4639 17.376 23.1064C16.2998 24.7301 15.4408 26.486 14.7988 28.374C14.1758 30.262 13.8643 32.2161 13.8643 34.2363C13.8643 35.9167 14.0719 37.3327 14.4873 38.4844C14.9027 39.6361 15.4502 40.5706 16.1299 41.2881C16.8096 42.0055 17.5742 42.5247 18.4238 42.8457C19.2734 43.1667 20.1325 43.3271 21.001 43.3271C22.9456 43.3271 24.7959 42.7985 26.5518 41.7412C28.3265 40.6839 29.8841 39.1735 31.2246 37.21C32.5651 35.2275 33.6318 32.8203 34.4248 29.9883C35.2178 27.1374 35.6143 23.9277 35.6143 20.3594C35.6143 20.0007 35.6048 19.6514 35.5859 19.3115C35.5859 18.9528 35.5859 18.5846 35.5859 18.207C35.5859 17.263 35.7559 16.5739 36.0957 16.1396C36.4355 15.6865 36.8226 15.46 37.2568 15.46C37.9932 15.46 38.5879 15.6676 39.041 16.083C39.513 16.4795 39.8812 17.0176 40.1455 17.6973C40.4098 18.3581 40.5892 19.1227 40.6836 19.9912C40.7969 20.8408 40.8535 21.7188 40.8535 22.625C40.8535 25.1927 40.5798 27.6188 40.0322 29.9033C39.4847 32.1689 38.7201 34.2741 37.7383 36.2188C36.7754 38.1445 35.6237 39.8815 34.2832 41.4297C32.9616 42.959 31.5267 44.2617 29.9785 45.3379C28.4303 46.3952 26.7972 47.2165 25.0791 47.8018C23.3799 48.3682 21.6618 48.6514 19.9248 48.6514C18.32 48.6514 16.7529 48.4248 15.2236 47.9717C13.6943 47.4997 12.3255 46.735 11.1172 45.6777C9.92773 44.6016 8.96484 43.195 8.22852 41.458C7.51107 39.7021 7.15234 37.5498 7.15234 35.001Z" fill="white"/>
</svg>
