<svg viewBox="0 0 34 34" fill="none">
<g clip-path="url(#clip0_1422_566)">
<mask id="mask0_1422_566" style="mask-type:alpha" maskUnits="userSpaceOnUse" x="0" y="0" width="34" height="34">
<path d="M0 0H34V34H0V0Z" fill="white"/>
</mask>
<g mask="url(#mask0_1422_566)">
<path fill-rule="evenodd" clip-rule="evenodd" d="M0 17.0949C0 25.5467 6.13842 32.5748 14.1667 34V21.7217H9.91667V17H14.1667V13.2217C14.1667 8.97175 16.9051 6.61158 20.7782 6.61158C22.0051 6.61158 23.3282 6.8 24.5551 6.98842V11.3333H22.3833C20.3051 11.3333 19.8333 12.3717 19.8333 13.6949V17H24.3667L23.6116 21.7217H19.8333V34C27.8616 32.5748 34 25.5482 34 17.0949C34 7.6925 26.35 0 17 0C7.65 0 0 7.6925 0 17.0949Z" fill="#F9B9F2"/>
</g>
</g>
<defs>
<clipPath id="clip0_1422_566">
<rect width="34" height="34" fill="white"/>
</clipPath>
</defs>
</svg>
