<svg viewBox="0 0 36 36" fill="none">
<g clip-path="url(#clip0_1311_32)">
<path d="M18.0007 0.720703C8.4571 0.720703 0.720703 8.4571 0.720703 18.0007C0.720703 27.5443 8.4571 35.2807 18.0007 35.2807C27.5443 35.2807 35.2807 27.5443 35.2807 18.0007C35.2807 8.4571 27.5443 0.720703 18.0007 0.720703ZM13.7707 25.1629H10.2715V13.9021H13.7707V25.1629ZM11.9995 12.5197C10.8943 12.5197 10.1797 11.7367 10.1797 10.7683C10.1797 9.7801 10.9159 9.0205 12.0445 9.0205C13.1731 9.0205 13.8643 9.7801 13.8859 10.7683C13.8859 11.7367 13.1731 12.5197 11.9995 12.5197ZM26.5507 25.1629H23.0515V18.9223C23.0515 17.4697 22.5439 16.4833 21.2785 16.4833C20.3119 16.4833 19.7377 17.1511 19.4839 17.7937C19.3903 18.0223 19.3669 18.3463 19.3669 18.6685V25.1611H15.8659V17.4931C15.8659 16.0873 15.8209 14.9119 15.7741 13.9003H18.8143L18.9745 15.4645H19.0447C19.5055 14.7301 20.6341 13.6465 22.5223 13.6465C24.8245 13.6465 26.5507 15.1891 26.5507 18.5047V25.1629Z" fill="#F9B9F2"/>
</g>
<defs>
<clipPath id="clip0_1311_32">
<rect width="36" height="36" fill="white"/>
</clipPath>
</defs>
</svg>
